<svg xmlns="http://www.w3.org/2000/svg" version="1.1" xmlns:xlink="http://www.w3.org/1999/xlink" width="343.12" height="375"><svg xmlns="http://www.w3.org/2000/svg" xmlns:xlink="http://www.w3.org/1999/xlink" zoomAndPan="magnify" preserveAspectRatio="xMidYMid meet" version="1.0" viewBox="15.86 0 343.12 375"><defs><g></g><clipPath id="SvgjsClipPath1006"><path d="M 15.683594 160 L 69 160 L 69 167 L 15.683594 167 Z M 15.683594 160 " clip-rule="nonzero"></path></clipPath><clipPath id="SvgjsClipPath1005"><rect x="0" width="103" y="0" height="96"></rect></clipPath></defs><path fill="#d8d8d8" d="M 217.203125 349.851562 C 217.203125 350.574219 217.152344 351.289062 217.046875 352.007812 C 216.945312 352.722656 216.792969 353.433594 216.585938 354.140625 C 216.382812 354.847656 216.125 355.542969 215.820312 356.234375 C 215.515625 356.921875 215.160156 357.601562 214.757812 358.265625 C 214.355469 358.929688 213.90625 359.578125 213.414062 360.214844 C 212.917969 360.851562 212.375 361.464844 211.792969 362.066406 C 211.207031 362.664062 210.582031 363.242188 209.917969 363.796875 C 209.25 364.355469 208.542969 364.886719 207.800781 365.394531 C 207.058594 365.90625 206.277344 366.386719 205.464844 366.84375 C 204.652344 367.300781 203.808594 367.730469 202.9375 368.128906 C 202.0625 368.53125 201.160156 368.898438 200.234375 369.238281 C 199.304688 369.578125 198.355469 369.886719 197.386719 370.160156 C 196.414062 370.4375 195.425781 370.679688 194.417969 370.886719 C 193.414062 371.097656 192.394531 371.273438 191.363281 371.414062 C 190.332031 371.554688 189.292969 371.660156 188.246094 371.730469 C 187.199219 371.800781 186.152344 371.835938 185.101562 371.835938 C 184.046875 371.835938 183 371.800781 181.953125 371.730469 C 180.90625 371.660156 179.867188 371.554688 178.835938 371.414062 C 177.804688 371.273438 176.789062 371.097656 175.78125 370.886719 C 174.773438 370.679688 173.785156 370.4375 172.816406 370.160156 C 171.84375 369.886719 170.894531 369.578125 169.96875 369.238281 C 169.039062 368.898438 168.140625 368.53125 167.265625 368.128906 C 166.390625 367.730469 165.546875 367.300781 164.734375 366.84375 C 163.921875 366.386719 163.144531 365.90625 162.398438 365.394531 C 161.65625 364.886719 160.953125 364.355469 160.285156 363.796875 C 159.617188 363.242188 158.992188 362.664062 158.40625 362.066406 C 157.824219 361.464844 157.285156 360.851562 156.789062 360.214844 C 156.292969 359.578125 155.84375 358.929688 155.441406 358.265625 C 155.039062 357.601562 154.683594 356.921875 154.378906 356.234375 C 154.074219 355.542969 153.820312 354.847656 153.613281 354.140625 C 153.410156 353.433594 153.253906 352.722656 153.152344 352.007812 C 153.046875 351.289062 152.996094 350.574219 152.996094 349.851562 C 152.996094 349.132812 153.046875 348.414062 153.152344 347.699219 C 153.253906 346.980469 153.410156 346.269531 153.613281 345.5625 C 153.820312 344.859375 154.074219 344.160156 154.378906 343.472656 C 154.683594 342.78125 155.039062 342.105469 155.441406 341.441406 C 155.84375 340.773438 156.292969 340.125 156.789062 339.488281 C 157.285156 338.855469 157.824219 338.238281 158.40625 337.640625 C 158.992188 337.042969 159.617188 336.464844 160.285156 335.90625 C 160.953125 335.351562 161.65625 334.816406 162.398438 334.308594 C 163.144531 333.800781 163.921875 333.316406 164.734375 332.859375 C 165.546875 332.402344 166.390625 331.976562 167.265625 331.574219 C 168.140625 331.175781 169.039062 330.804688 169.96875 330.464844 C 170.894531 330.125 171.84375 329.820312 172.816406 329.542969 C 173.785156 329.269531 174.773438 329.027344 175.78125 328.816406 C 176.789062 328.609375 177.804688 328.433594 178.835938 328.292969 C 179.867188 328.152344 180.90625 328.046875 181.953125 327.976562 C 183 327.90625 184.046875 327.871094 185.101562 327.871094 C 186.152344 327.871094 187.199219 327.90625 188.246094 327.976562 C 189.292969 328.046875 190.332031 328.152344 191.363281 328.292969 C 192.394531 328.433594 193.414062 328.609375 194.417969 328.816406 C 195.425781 329.027344 196.414062 329.269531 197.386719 329.542969 C 198.355469 329.820312 199.304688 330.125 200.234375 330.464844 C 201.160156 330.804688 202.0625 331.175781 202.9375 331.574219 C 203.808594 331.976562 204.652344 332.402344 205.464844 332.859375 C 206.277344 333.316406 207.058594 333.800781 207.800781 334.308594 C 208.542969 334.816406 209.25 335.351562 209.917969 335.90625 C 210.582031 336.464844 211.207031 337.042969 211.792969 337.640625 C 212.375 338.238281 212.917969 338.855469 213.414062 339.488281 C 213.90625 340.125 214.355469 340.773438 214.757812 341.441406 C 215.160156 342.105469 215.515625 342.78125 215.820312 343.472656 C 216.125 344.160156 216.382812 344.859375 216.585938 345.5625 C 216.792969 346.269531 216.945312 346.980469 217.046875 347.699219 C 217.152344 348.414062 217.203125 349.132812 217.203125 349.851562 Z M 217.203125 349.851562 " fill-opacity="1" fill-rule="nonzero"></path><path fill="#333333" d="M 185.101562 375 C 165.652344 375 149.824219 363.71875 149.824219 349.851562 C 149.824219 335.984375 165.644531 324.703125 185.101562 324.703125 C 204.554688 324.703125 220.367188 335.984375 220.367188 349.851562 C 220.367188 363.71875 204.546875 375 185.101562 375 Z M 185.101562 331.042969 C 169.144531 331.042969 156.167969 339.480469 156.167969 349.851562 C 156.167969 360.226562 169.144531 368.664062 185.101562 368.664062 C 201.054688 368.664062 214.03125 360.226562 214.03125 349.851562 C 214.03125 339.480469 201.054688 331.042969 185.101562 331.042969 Z M 185.101562 331.042969 " fill-opacity="1" fill-rule="nonzero"></path><path fill="#ffc840" d="M 280.023438 169.101562 C 280.023438 115.394531 235.445312 72.105469 181.285156 74.234375 C 132.875 76.140625 93.191406 115.027344 90.367188 163.410156 C 88.125 201.796875 108.695312 235.605469 139.78125 252.539062 C 147.667969 256.835938 152.699219 264.984375 152.699219 273.96875 L 152.699219 299.8125 L 217.511719 299.8125 L 217.511719 274.003906 C 217.511719 264.96875 222.601562 256.824219 230.527344 252.488281 C 260.003906 236.378906 280.007812 205.078125 280.007812 169.109375 Z M 280.023438 169.101562 " fill-opacity="1" fill-rule="nonzero"></path><path fill="#333333" d="M 220.6875 302.976562 L 149.535156 302.976562 L 149.535156 273.960938 C 149.535156 266.242188 145.214844 259.101562 138.265625 255.316406 C 104.527344 236.933594 84.960938 201.644531 87.203125 163.222656 C 90.101562 113.503906 131.375 73.019531 181.15625 71.0625 C 208.109375 70.027344 233.667969 79.703125 253.078125 98.363281 C 272.496094 117.039062 283.1875 142.15625 283.1875 169.09375 C 283.1875 205.003906 263.59375 238.019531 232.054688 255.253906 C 225.046875 259.085938 220.6875 266.265625 220.6875 273.988281 Z M 155.875 296.640625 L 214.355469 296.640625 L 214.355469 273.996094 C 214.355469 263.953125 219.976562 254.640625 229.019531 249.699219 C 258.519531 233.578125 276.851562 202.695312 276.851562 169.101562 C 276.851562 143.902344 266.847656 120.40625 248.683594 102.9375 C 230.53125 85.476562 206.675781 76.394531 181.402344 77.398438 C 134.839844 79.230469 96.234375 117.089844 93.523438 163.589844 C 91.421875 199.539062 109.730469 232.550781 141.292969 249.75 C 150.285156 254.648438 155.859375 263.925781 155.859375 273.960938 L 155.859375 296.640625 Z M 155.875 296.640625 " fill-opacity="1" fill-rule="nonzero"></path><path fill="#aaaaaa" d="M 148.964844 279.863281 L 221.257812 279.863281 C 221.804688 279.863281 222.347656 279.914062 222.886719 280.023438 C 223.421875 280.128906 223.945312 280.289062 224.449219 280.496094 C 224.957031 280.707031 225.4375 280.964844 225.890625 281.269531 C 226.347656 281.570312 226.765625 281.917969 227.152344 282.304688 C 227.542969 282.691406 227.886719 283.113281 228.191406 283.570312 C 228.496094 284.023438 228.75 284.503906 228.960938 285.011719 C 229.171875 285.515625 229.328125 286.039062 229.4375 286.574219 C 229.542969 287.113281 229.597656 287.65625 229.597656 288.203125 L 229.597656 297.300781 C 229.597656 297.847656 229.542969 298.390625 229.4375 298.925781 C 229.328125 299.464844 229.171875 299.984375 228.960938 300.492188 C 228.75 300.996094 228.496094 301.476562 228.191406 301.933594 C 227.886719 302.390625 227.542969 302.808594 227.152344 303.195312 C 226.765625 303.585938 226.347656 303.929688 225.890625 304.234375 C 225.4375 304.539062 224.957031 304.796875 224.449219 305.003906 C 223.945312 305.214844 223.421875 305.371094 222.886719 305.480469 C 222.347656 305.585938 221.804688 305.640625 221.257812 305.640625 L 148.964844 305.640625 C 148.417969 305.640625 147.875 305.585938 147.335938 305.480469 C 146.800781 305.371094 146.277344 305.214844 145.773438 305.003906 C 145.269531 304.796875 144.789062 304.539062 144.332031 304.234375 C 143.875 303.929688 143.457031 303.585938 143.070312 303.195312 C 142.679688 302.808594 142.335938 302.390625 142.03125 301.933594 C 141.726562 301.476562 141.472656 300.996094 141.261719 300.492188 C 141.050781 299.984375 140.894531 299.464844 140.785156 298.925781 C 140.679688 298.390625 140.625 297.847656 140.625 297.300781 L 140.625 288.203125 C 140.625 287.65625 140.679688 287.113281 140.785156 286.574219 C 140.894531 286.039062 141.050781 285.515625 141.261719 285.011719 C 141.472656 284.503906 141.726562 284.023438 142.03125 283.570312 C 142.335938 283.113281 142.679688 282.691406 143.070312 282.304688 C 143.457031 281.917969 143.875 281.570312 144.332031 281.269531 C 144.789062 280.964844 145.269531 280.707031 145.773438 280.496094 C 146.277344 280.289062 146.800781 280.128906 147.335938 280.023438 C 147.875 279.914062 148.417969 279.863281 148.964844 279.863281 Z M 148.964844 279.863281 " fill-opacity="1" fill-rule="nonzero"></path><path fill="#333333" d="M 221.257812 308.804688 L 148.972656 308.804688 C 142.628906 308.804688 137.464844 303.636719 137.464844 297.292969 L 137.464844 288.203125 C 137.464844 281.859375 142.628906 276.691406 148.972656 276.691406 L 221.257812 276.691406 C 227.601562 276.691406 232.765625 281.859375 232.765625 288.203125 L 232.765625 297.292969 C 232.765625 303.636719 227.601562 308.804688 221.257812 308.804688 Z M 148.972656 283.027344 C 146.121094 283.027344 143.796875 285.34375 143.796875 288.203125 L 143.796875 297.292969 C 143.796875 300.140625 146.113281 302.46875 148.972656 302.46875 L 221.257812 302.46875 C 224.109375 302.46875 226.433594 300.148438 226.433594 297.292969 L 226.433594 288.203125 C 226.433594 285.351562 224.117188 283.027344 221.257812 283.027344 Z M 148.972656 283.027344 " fill-opacity="1" fill-rule="nonzero"></path><path fill="#aaaaaa" d="M 148.933594 305.640625 L 221.230469 305.640625 C 221.777344 305.640625 222.320312 305.695312 222.855469 305.800781 C 223.390625 305.90625 223.914062 306.066406 224.417969 306.273438 C 224.925781 306.484375 225.40625 306.742188 225.859375 307.046875 C 226.316406 307.351562 226.738281 307.695312 227.125 308.082031 C 227.511719 308.46875 227.855469 308.890625 228.160156 309.347656 C 228.464844 309.800781 228.722656 310.28125 228.929688 310.789062 C 229.140625 311.292969 229.300781 311.816406 229.40625 312.351562 C 229.511719 312.890625 229.566406 313.433594 229.566406 313.980469 L 229.566406 323.078125 C 229.566406 323.625 229.511719 324.167969 229.40625 324.703125 C 229.300781 325.242188 229.140625 325.761719 228.929688 326.269531 C 228.722656 326.773438 228.464844 327.253906 228.160156 327.710938 C 227.855469 328.167969 227.511719 328.585938 227.125 328.976562 C 226.738281 329.363281 226.316406 329.707031 225.859375 330.011719 C 225.40625 330.316406 224.925781 330.574219 224.417969 330.78125 C 223.914062 330.992188 223.390625 331.148438 222.855469 331.257812 C 222.320312 331.363281 221.777344 331.417969 221.230469 331.417969 L 148.933594 331.417969 C 148.386719 331.417969 147.84375 331.363281 147.308594 331.257812 C 146.769531 331.148438 146.25 330.992188 145.742188 330.78125 C 145.238281 330.574219 144.757812 330.316406 144.300781 330.011719 C 143.847656 329.707031 143.425781 329.363281 143.039062 328.976562 C 142.652344 328.585938 142.304688 328.167969 142 327.710938 C 141.699219 327.253906 141.441406 326.773438 141.230469 326.269531 C 141.023438 325.761719 140.863281 325.242188 140.757812 324.703125 C 140.648438 324.167969 140.597656 323.625 140.597656 323.078125 L 140.597656 313.980469 C 140.597656 313.433594 140.648438 312.890625 140.757812 312.351562 C 140.863281 311.816406 141.023438 311.292969 141.230469 310.789062 C 141.441406 310.28125 141.699219 309.800781 142 309.347656 C 142.304688 308.890625 142.652344 308.46875 143.039062 308.082031 C 143.425781 307.695312 143.847656 307.351562 144.300781 307.046875 C 144.757812 306.742188 145.238281 306.484375 145.742188 306.273438 C 146.25 306.066406 146.769531 305.90625 147.308594 305.800781 C 147.84375 305.695312 148.386719 305.640625 148.933594 305.640625 Z M 148.933594 305.640625 " fill-opacity="1" fill-rule="nonzero"></path><path fill="#333333" d="M 221.222656 334.582031 L 148.933594 334.582031 C 142.589844 334.582031 137.425781 329.414062 137.425781 323.070312 L 137.425781 313.980469 C 137.425781 307.636719 142.589844 302.46875 148.933594 302.46875 L 221.222656 302.46875 C 227.5625 302.46875 232.730469 307.636719 232.730469 313.980469 L 232.730469 323.070312 C 232.730469 329.414062 227.5625 334.582031 221.222656 334.582031 Z M 148.933594 308.804688 C 146.085938 308.804688 143.761719 311.121094 143.761719 313.980469 L 143.761719 323.070312 C 143.761719 325.921875 146.078125 328.246094 148.933594 328.246094 L 221.222656 328.246094 C 224.070312 328.246094 226.394531 325.925781 226.394531 323.070312 L 226.394531 313.980469 C 226.394531 311.128906 224.078125 308.804688 221.222656 308.804688 Z M 148.933594 308.804688 " fill-opacity="1" fill-rule="nonzero"></path><path fill="#aaaaaa" d="M 148.933594 331.410156 L 221.230469 331.410156 C 221.777344 331.410156 222.320312 331.464844 222.855469 331.570312 C 223.390625 331.675781 223.914062 331.835938 224.417969 332.042969 C 224.925781 332.253906 225.40625 332.511719 225.859375 332.816406 C 226.316406 333.121094 226.738281 333.464844 227.125 333.851562 C 227.511719 334.238281 227.855469 334.660156 228.160156 335.117188 C 228.464844 335.570312 228.722656 336.050781 228.929688 336.558594 C 229.140625 337.0625 229.300781 337.585938 229.40625 338.121094 C 229.511719 338.660156 229.566406 339.203125 229.566406 339.75 L 229.566406 348.847656 C 229.566406 349.394531 229.511719 349.9375 229.40625 350.472656 C 229.300781 351.011719 229.140625 351.53125 228.929688 352.039062 C 228.722656 352.546875 228.464844 353.027344 228.160156 353.480469 C 227.855469 353.9375 227.511719 354.359375 227.125 354.746094 C 226.738281 355.132812 226.316406 355.476562 225.859375 355.78125 C 225.40625 356.085938 224.925781 356.34375 224.417969 356.550781 C 223.914062 356.761719 223.390625 356.921875 222.855469 357.027344 C 222.320312 357.132812 221.777344 357.1875 221.230469 357.1875 L 148.933594 357.1875 C 148.386719 357.1875 147.84375 357.132812 147.308594 357.027344 C 146.769531 356.921875 146.25 356.761719 145.742188 356.550781 C 145.238281 356.34375 144.757812 356.085938 144.300781 355.78125 C 143.847656 355.476562 143.425781 355.132812 143.039062 354.746094 C 142.652344 354.359375 142.304688 353.9375 142 353.480469 C 141.699219 353.027344 141.441406 352.546875 141.230469 352.039062 C 141.023438 351.53125 140.863281 351.011719 140.757812 350.472656 C 140.648438 349.9375 140.597656 349.394531 140.597656 348.847656 L 140.597656 339.75 C 140.597656 339.203125 140.648438 338.660156 140.757812 338.121094 C 140.863281 337.585938 141.023438 337.0625 141.230469 336.558594 C 141.441406 336.050781 141.699219 335.570312 142 335.117188 C 142.304688 334.660156 142.652344 334.238281 143.039062 333.851562 C 143.425781 333.464844 143.847656 333.121094 144.300781 332.816406 C 144.757812 332.511719 145.238281 332.253906 145.742188 332.042969 C 146.25 331.835938 146.769531 331.675781 147.308594 331.570312 C 147.84375 331.464844 148.386719 331.410156 148.933594 331.410156 Z M 148.933594 331.410156 " fill-opacity="1" fill-rule="nonzero"></path><path fill="#333333" d="M 221.222656 360.359375 L 148.933594 360.359375 C 142.589844 360.359375 137.425781 355.191406 137.425781 348.847656 L 137.425781 339.757812 C 137.425781 333.414062 142.589844 328.246094 148.933594 328.246094 L 221.222656 328.246094 C 227.5625 328.246094 232.730469 333.414062 232.730469 339.757812 L 232.730469 348.847656 C 232.730469 355.191406 227.5625 360.359375 221.222656 360.359375 Z M 148.933594 334.582031 C 146.085938 334.582031 143.761719 336.898438 143.761719 339.757812 L 143.761719 348.847656 C 143.761719 351.699219 146.078125 354.023438 148.933594 354.023438 L 221.222656 354.023438 C 224.070312 354.023438 226.394531 351.703125 226.394531 348.847656 L 226.394531 339.757812 C 226.394531 336.90625 224.078125 334.582031 221.222656 334.582031 Z M 148.933594 334.582031 " fill-opacity="1" fill-rule="nonzero"></path><path fill="#ffffff" d="M 260.019531 160.785156 C 258.421875 160.785156 257.050781 159.578125 256.871094 157.957031 C 255.707031 147.171875 251.171875 126.945312 233.792969 112.589844 C 232.445312 111.472656 232.257812 109.476562 233.367188 108.128906 C 234.476562 106.777344 236.476562 106.582031 237.828125 107.699219 C 256.9375 123.488281 261.910156 145.539062 263.167969 157.273438 C 263.355469 159.015625 262.097656 160.574219 260.355469 160.761719 C 260.246094 160.777344 260.125 160.777344 260.011719 160.777344 Z M 260.019531 160.785156 " fill-opacity="1" fill-rule="nonzero"></path><path fill="#ffffff" d="M 226.296875 105.53125 C 225.53125 105.53125 224.769531 105.253906 224.160156 104.699219 C 218.703125 99.699219 212.425781 96.675781 205.507812 95.714844 C 203.777344 95.476562 202.5625 93.878906 202.808594 92.136719 C 203.046875 90.40625 204.621094 89.183594 206.378906 89.429688 C 214.472656 90.554688 222.097656 94.214844 228.433594 100.011719 C 229.722656 101.199219 229.8125 103.199219 228.628906 104.488281 C 228.007812 105.171875 227.144531 105.515625 226.289062 105.515625 Z M 226.296875 105.53125 " fill-opacity="1" fill-rule="nonzero"></path><path fill="#333333" d="M 185.113281 52.386719 C 183.367188 52.386719 181.945312 50.96875 181.945312 49.214844 L 181.945312 3.171875 C 181.945312 1.425781 183.359375 0 185.113281 0 C 186.871094 0 188.285156 1.417969 188.285156 3.171875 L 188.285156 49.222656 C 188.285156 50.96875 186.871094 52.394531 185.113281 52.394531 Z M 185.113281 52.386719 " fill-opacity="1" fill-rule="nonzero"></path><g clip-path="url(#de0874e9fb)"><path fill="#333333" d="M 65.054688 166.515625 L 19.03125 166.515625 C 17.28125 166.515625 15.859375 165.097656 15.859375 163.34375 C 15.859375 161.585938 17.277344 160.171875 19.03125 160.171875 L 65.054688 160.171875 C 66.800781 160.171875 68.226562 161.585938 68.226562 163.34375 C 68.226562 165.097656 66.808594 166.515625 65.054688 166.515625 Z M 65.054688 166.515625 " fill-opacity="1" fill-rule="nonzero"></path></g><path fill="#333333" d="M 355.804688 166.515625 L 309.777344 166.515625 C 308.03125 166.515625 306.605469 165.097656 306.605469 163.34375 C 306.605469 161.585938 308.023438 160.171875 309.777344 160.171875 L 355.804688 160.171875 C 357.550781 160.171875 358.976562 161.585938 358.976562 163.34375 C 358.976562 165.097656 357.558594 166.515625 355.804688 166.515625 Z M 355.804688 166.515625 " fill-opacity="1" fill-rule="nonzero"></path><path fill="#ffc840" d="M 273.515625 74.160156 L 306.066406 41.59375 " fill-opacity="1" fill-rule="nonzero"></path><path fill="#333333" d="M 273.515625 77.324219 C 272.703125 77.324219 271.894531 77.015625 271.273438 76.394531 C 270.035156 75.15625 270.035156 73.15625 271.273438 71.917969 L 303.816406 39.359375 C 305.054688 38.121094 307.058594 38.121094 308.292969 39.359375 C 309.53125 40.597656 309.53125 42.601562 308.292969 43.835938 L 275.75 76.394531 C 275.125 77.015625 274.316406 77.324219 273.507812 77.324219 Z M 273.515625 77.324219 " fill-opacity="1" fill-rule="nonzero"></path><path fill="#ffc840" d="M 97.601562 74.160156 L 65.054688 41.59375 " fill-opacity="1" fill-rule="nonzero"></path><path fill="#333333" d="M 97.601562 77.324219 C 96.789062 77.324219 95.980469 77.015625 95.359375 76.394531 L 62.8125 43.835938 C 61.578125 42.601562 61.578125 40.589844 62.8125 39.359375 C 64.050781 38.121094 66.050781 38.121094 67.289062 39.359375 L 99.835938 71.917969 C 101.070312 73.15625 101.070312 75.164062 99.835938 76.394531 C 99.210938 77.015625 98.402344 77.324219 97.59375 77.324219 Z M 97.601562 77.324219 " fill-opacity="1" fill-rule="nonzero"></path><path fill="#ffc840" d="M 97.601562 252.539062 L 65.054688 285.105469 " fill-opacity="1" fill-rule="nonzero"></path><path fill="#333333" d="M 65.054688 288.269531 C 64.246094 288.269531 63.4375 287.960938 62.8125 287.339844 C 61.578125 286.101562 61.578125 284.101562 62.8125 282.863281 L 95.359375 250.304688 C 96.597656 249.066406 98.597656 249.066406 99.835938 250.304688 C 101.070312 251.542969 101.070312 253.546875 99.835938 254.78125 L 67.289062 287.339844 C 66.667969 287.960938 65.859375 288.269531 65.046875 288.269531 Z M 65.054688 288.269531 " fill-opacity="1" fill-rule="nonzero"></path><path fill="#ffc840" d="M 273.515625 252.539062 L 306.066406 285.105469 " fill-opacity="1" fill-rule="nonzero"></path><path fill="#333333" d="M 306.066406 288.269531 C 305.257812 288.269531 304.449219 287.960938 303.824219 287.339844 L 271.28125 254.78125 C 270.042969 253.546875 270.042969 251.535156 271.28125 250.304688 C 272.515625 249.066406 274.519531 249.066406 275.757812 250.304688 L 308.300781 282.863281 C 309.539062 284.101562 309.539062 286.109375 308.300781 287.339844 C 307.679688 287.960938 306.871094 288.269531 306.058594 288.269531 Z M 306.066406 288.269531 " fill-opacity="1" fill-rule="nonzero"></path><g transform="matrix(1, 0, 0, 1, 136, 122)"><g clip-path="url(#f433a6765b)"><g fill="#000000" fill-opacity="1"><g transform="translate(0.861314, 72.381919)"><g><path d="M 32.765625 -14.453125 L 32.765625 -8.765625 L 3.546875 -21.921875 L 3.546875 -26.359375 L 32.765625 -39.515625 L 32.765625 -33.828125 L 11.109375 -24.515625 L 11.109375 -23.796875 Z M 32.765625 -14.453125 "></path></g></g></g><g fill="#000000" fill-opacity="1"><g transform="translate(38.055492, 72.381919)"><g><path d="M 6.203125 7.125 L 0.859375 7.125 L 19.4375 -52.71875 L 24.78125 -52.71875 Z M 6.203125 7.125 "></path></g></g></g><g fill="#000000" fill-opacity="1"><g transform="translate(65.022131, 72.381919)"><g><path d="M 33.578125 -21.921875 L 4.390625 -8.765625 L 4.390625 -14.453125 L 26.046875 -23.796875 L 26.046875 -24.515625 L 4.390625 -33.828125 L 4.390625 -39.515625 L 33.578125 -26.359375 Z M 33.578125 -21.921875 "></path></g></g></g></g></g></svg><style>@media (prefers-color-scheme: light) { :root { filter: none; } }
@media (prefers-color-scheme: dark) { :root { filter: none; } }
</style></svg>